Coordinates
version=1
nRows=26
nColumns=24
inDegrees=yes

Units are S.I. units (second, meters, Newtons, ...)
If the header above contains a line with 'inDegrees', this indicates whether rotational values are in degrees (yes) or radians (no).

endheader
time	pelvis_tilt	pelvis_list	pelvis_rotation	pelvis_tx	pelvis_ty	pelvis_tz	hip_flexion_r	hip_adduction_r	hip_rotation_r	knee_angle_r	ankle_angle_r	subtalar_angle_r	mtp_angle_r	hip_flexion_l	hip_adduction_l	hip_rotation_l	knee_angle_l	ankle_angle_l	subtalar_angle_l	mtp_angle_l	lumbar_extension	lumbar_bending	lumbar_rotation
      7.31000000	      6.18808449	     -0.71326732	    -88.82485547	      0.11986145	      0.94740847	     -0.13212496	     24.75298824	    -10.84582985	     -6.09297750	     -4.02955662	     16.40723781	      9.51676551	      0.00000000	     -7.19051474	     10.41462032	    -11.14265295	     -9.96683041	     20.40690044	     -0.07325532	      0.00000000	      0.00000000	      0.00000000	      0.00000000
      7.32000000	      6.18596967	     -0.43116061	    -88.59163430	      0.11902903	      0.94656918	     -0.12668309	     24.59751610	    -10.80790711	     -6.27291396	     -3.99963442	     16.47460812	      9.50800281	      0.00000000	     -7.30088773	     10.28910024	    -11.01308661	     -9.91610042	     20.58148829	      0.19161768	      0.00000000	      0.00000000	      0.00000000	      0.00000000
      7.33000000	      6.14562672	     -0.09738228	    -88.36346040	      0.11812660	      0.94575212	     -0.12117261	     24.44104886	    -10.73588821	     -6.45613685	     -3.75096678	     16.35616500	      9.51101750	      0.00000000	     -7.36346274	     10.11960122	    -10.91322643	     -9.84847796	     20.69853733	      0.42912234	      0.00000000	      0.00000000	      0.00000000	      0.00000000
      7.34000000	      6.06053537	      0.23977449	    -88.09370468	      0.11711287	      0.94506027	     -0.11571520	     24.23692499	    -10.62933557	     -6.56789449	     -3.29784483	     15.83099692	      9.28154158	      0.00000000	     -7.40633382	      9.87438413	    -10.83071813	     -9.80564550	     20.87734911	      0.82724322	      0.00000000	      0.00000000	      0.00000000	      0.00000000
      7.35000000	      5.87236992	      0.64232733	    -87.87701801	      0.11584037	      0.94446309	     -0.11022500	     24.10872515	    -10.38266678	     -6.37956624	     -2.78686638	     14.73177806	      8.45506691	      0.00000000	     -7.37014345	      9.50934637	    -10.86262250	     -9.75570489	     21.00999483	      1.24580896	      0.00000000	      0.00000000	      0.00000000	      0.00000000
      7.36000000	      5.63045781	      1.07837762	    -87.64781444	      0.11444882	      0.94396632	     -0.10477954	     24.09111313	    -10.09461252	     -6.04070808	     -2.42878347	     13.30906608	      7.28337019	      0.00000000	     -7.27361500	      9.07210839	    -10.89496894	     -9.73526170	     21.13163787	      1.68110283	      0.00000000	      0.00000000	      0.00000000	      0.00000000
      7.37000000	      5.34382943	      1.50740324	    -87.43437014	      0.11298146	      0.94359919	     -0.09932625	     24.19155143	     -9.77053890	     -5.63327029	     -2.32017520	     11.78616018	      5.99370905	      0.00000000	     -7.17088036	      8.57977311	    -10.96230981	     -9.72875436	     21.21143751	      2.15839929	      0.00000000	      0.00000000	      0.00000000	      0.00000000
      7.38000000	      5.02852176	      1.89974871	    -87.25151806	      0.11143368	      0.94335975	     -0.09386579	     24.37965530	     -9.41692154	     -5.28316133	     -2.43600679	     10.31694310	      4.81971431	      0.00000000	     -7.09243377	      8.04987565	    -11.07209395	     -9.73768636	     21.27084194	      2.67018843	      0.00000000	      0.00000000	      0.00000000	      0.00000000
      7.39000000	      4.70906464	      2.22430544	    -87.10628547	      0.10980828	      0.94325397	     -0.08835878	     24.57863811	     -9.04286595	     -5.01994718	     -2.68960746	      8.97476685	      3.81436528	      0.00000000	     -7.08158928	      7.50721290	    -11.24182578	     -9.75075877	     21.30445571	      3.22705243	      0.00000000	      0.00000000	      0.00000000	      0.00000000
      7.40000000	      4.41046272	      2.46736355	    -86.97693955	      0.10815288	      0.94329456	     -0.08278685	     24.73330248	     -8.67350830	     -4.85389469	     -3.02378012	      7.75558417	      2.94239303	      0.00000000	     -7.15831274	      6.97412924	    -11.45686685	     -9.76604568	     21.28594773	      3.84691104	      0.00000000	      0.00000000	      0.00000000	      0.00000000
      7.41000000	      4.14002326	      2.63414713	    -86.89684830	      0.10644728	      0.94347804	     -0.07712980	     24.84949807	     -8.30677134	     -4.71730917	     -3.43095776	      6.61258563	      2.19722597	      0.00000000	     -7.32093704	      6.46617670	    -11.72751257	     -9.78153517	     21.23057718	      4.49541320	      0.00000000	      0.00000000	      0.00000000	      0.00000000
      7.42000000	      3.90758400	      2.74925852	    -86.84851718	      0.10466336	      0.94378749	     -0.07141587	     24.95690089	     -7.96472828	     -4.63736173	     -3.92177347	      5.60650169	      1.63635954	      0.00000000	     -7.53824530	      5.98641881	    -12.05408460	     -9.80639440	     21.13183147	      5.19984946	      0.00000000	      0.00000000	      0.00000000	      0.00000000
      7.43000000	      3.72360574	      2.85547601	    -86.78848350	      0.10282601	      0.94417009	     -0.06564140	     25.08313645	     -7.67938102	     -4.62477125	     -4.48680826	      4.84219239	      1.30150074	      0.00000000	     -7.76239282	      5.53643548	    -12.42258322	     -9.84599938	     20.97930162	      6.02948088	      0.00000000	      0.00000000	      0.00000000	      0.00000000
      7.44000000	      3.58330930	      2.94526832	    -86.73434191	      0.10088157	      0.94459347	     -0.05980722	     25.21493220	     -7.42950709	     -4.58002670	     -5.11446098	      4.30419928	      1.07122784	      0.00000000	     -7.99942163	      5.11084176	    -12.87263091	     -9.90279020	     20.78192414	      6.94965927	      0.00000000	      0.00000000	      0.00000000	      0.00000000
      7.45000000	      3.48453801	      3.01335098	    -86.66113648	      0.09888953	      0.94504658	     -0.05386994	     25.32421619	     -7.21897110	     -4.47012151	     -5.77695967	      3.89656391	      0.82703504	      0.00000000	     -8.26227960	      4.70681550	    -13.34158677	     -9.96779774	     20.54093973	      7.94950745	      0.00000000	      0.00000000	      0.00000000	      0.00000000
      7.46000000	      3.42495890	      3.12022716	    -86.51911265	      0.09692563	      0.94546106	     -0.04786769	     25.47253871	     -7.07808058	     -4.44221801	     -6.47501798	      3.53914119	      0.65871163	      0.00000000	     -8.46819029	      4.31953501	    -13.75770929	    -10.06761678	     20.27041003	      9.00714197	      0.00000000	      0.00000000	      0.00000000	      0.00000000
      7.47000000	      3.38008431	      3.21698978	    -86.35306620	      0.09489079	      0.94591077	     -0.04176459	     25.60618715	     -6.95551489	     -4.43576744	     -7.19049798	      3.21738602	      0.43211180	      0.00000000	     -8.68359059	      3.93023919	    -14.18403398	    -10.17108335	     19.93819744	     10.10057490	      0.00000000	      0.00000000	      0.00000000	      0.00000000
      7.48000000	      3.29538505	      3.30756965	    -86.19325395	      0.09273597	      0.94641516	     -0.03551582	     25.71844808	     -6.78468494	     -4.46993435	     -7.89717435	      2.90307269	      0.15842196	      0.00000000	     -8.90837289	      3.49634795	    -14.60983547	    -10.26633496	     19.54533761	     11.12605863	      0.00000000	      0.00000000	      0.00000000	      0.00000000
      7.49000000	      3.20090626	      3.45998595	    -85.93843961	      0.09062754	      0.94688727	     -0.02921623	     25.87495950	     -6.65594047	     -4.72187047	     -8.61537029	      2.66976720	     -0.00468946	      0.00000000	     -9.03204665	      3.04550603	    -14.82493780	    -10.40949378	     19.13694639	     11.99180831	      0.00000000	      0.00000000	      0.00000000	      0.00000000
      7.50000000	      3.09080151	      3.59831773	    -85.72107945	      0.08846429	      0.94734076	     -0.02274342	     26.00444593	     -6.49397539	     -4.94714324	     -9.32790101	      2.52084575	     -0.20366675	      0.00000000	     -9.18030234	      2.59889010	    -14.98358769	    -10.53781218	     18.70264317	     12.69264714	      0.00000000	      0.00000000	      0.00000000	      0.00000000
      7.51000000	      2.96304526	      3.72509762	    -85.51060976	      0.08625714	      0.94778007	     -0.01613943	     26.09936721	     -6.31230607	     -5.19162196	    -10.01796542	      2.42913966	     -0.37138453	      0.00000000	     -9.33248324	      2.14284739	    -15.08018031	    -10.67881298	     18.24574806	     13.24977532	      0.00000000	      0.00000000	      0.00000000	      0.00000000
      7.52000000	      2.81891304	      3.84788640	    -85.32499822	      0.08400780	      0.94820231	     -0.00941115	     26.17721992	     -6.10897191	     -5.45237738	    -10.69225039	      2.34678232	     -0.48812467	      0.00000000	     -9.49115638	      1.68049398	    -15.18627830	    -10.81277993	     17.75809332	     13.74573177	      0.00000000	      0.00000000	      0.00000000	      0.00000000
      7.53000000	      2.64324537	      3.95248310	    -85.16608975	      0.08165456	      0.94860190	     -0.00254267	     26.22021635	     -5.85771302	     -5.71607521	    -11.35088252	      2.30418143	     -0.57958370	      0.00000000	     -9.66217358	      1.17731378	    -15.40296378	    -10.96888695	     17.26302146	     14.28828800	      0.00000000	      0.00000000	      0.00000000	      0.00000000
      7.54000000	      2.46832958	      4.04020344	    -85.03746480	      0.07926619	      0.94897989	      0.00445140	     26.23006849	     -5.59983946	     -6.02565993	    -11.98994073	      2.23278509	     -0.61915110	      0.00000000	     -9.86898833	      0.67887250	    -15.68686971	    -11.09876002	     16.72761633	     14.87345296	      0.00000000	      0.00000000	      0.00000000	      0.00000000
      7.55000000	      2.27303265	      4.08949748	    -84.94119981	      0.07679540	      0.94933892	      0.01166256	     26.16796081	     -5.29775843	     -6.30295948	    -12.58435703	      2.20348616	     -0.67552004	      0.00000000	    -10.13914887	      0.15475647	    -16.03430672	    -11.20828416	     16.17166665	     15.52130324	      0.00000000	      0.00000000	      0.00000000	      0.00000000
      7.56000000	      2.07272826	      4.10281658	    -84.85943852	      0.07423050	      0.94971780	      0.01894386	     26.06356985	     -4.97175514	     -6.52717953	    -13.16349611	      2.11109720	     -0.80918105	      0.00000000	    -10.43552358	     -0.38721925	    -16.39692038	    -11.34201282	     15.59036236	     16.17512689	      0.00000000	      0.00000000	      0.00000000	      0.00000000
